<svg fill="none" height="24" viewBox="0 0 24 24" width="24" xmlns="http://www.w3.org/2000/svg"><path d="m22.4901 2-9.4401 6.98494 1.7555-4.11645z" fill="#e17726"/><g fill="#e27625"><path d="m1.53204 2.00824 7.66399 2.86078 1.66687 4.17043z"/><path d="m18.6911 16.855 4.1723.0794-1.4582 4.9536-5.0911-1.4018z"/><path d="m5.30881 16.855 2.3682 3.6313-5.08263 1.4018-1.4493-4.9537z"/><path d="m10.6362 7.97711.1706 5.50719-5.10221-.2322 1.45128-2.1894.01837-.0211z"/><path d="m13.3109 7.91565 3.5148 3.12615.0182.0209 1.4513 2.1895-5.101.2321z"/><path d="m7.82644 16.871 2.78596 2.1707-3.23624 1.5624z"/><path d="m16.174 16.8706.441 3.7335-3.2272-1.5626z"/></g><path d="m13.459 18.837 3.2749 1.5857-3.0463 1.4478.0317-.9569z" fill="#d5bfb2"/><path d="m10.54 18.8377-.25 2.0602.0205.9714-3.05336-1.4466z" fill="#d5bfb2"/><path d="m9.59438 14.203.85572 1.7985-2.91354-.8535z" fill="#233447"/><path d="m14.4055 14.2032 2.0675.9448-2.9231.8532z" fill="#233447"/><g fill="#cc6228"><path d="m8.04916 16.8526-.47097 3.8706-2.52423-3.786z"/><path d="m15.9511 16.8526 2.9953.0846-2.5337 3.7861z"/><path d="m18.369 13.0333-2.1798 2.2215-1.6806-.768-.8047 1.6916-.5275-2.9089z"/><path d="m5.62994 13.0333 5.19356.2363-.5275 2.9088-.80482-1.6913-1.6718.7678z"/></g><g fill="#e27525"><path d="m5.48297 12.5774 2.46626 2.5026.08547 2.4706z"/><path d="m18.5195 12.5729-2.5563 4.9821.0962-2.4751z"/><path d="m10.7029 12.7298.0993.6248.2452 1.5564-.1577 4.7803-.7455-3.8401-.0002-.0397z"/><path d="m13.2958 12.7212.5604 3.0903-.0003.0397-.7474 3.8497-.0295-.9629-.1167-3.8553z"/></g><path d="m16.2787 14.9805-.0835 2.1466-2.6016 2.027-.526-.3716.5896-3.0366z" fill="#f5841f"/><path d="m7.73035 14.9805 2.61245.7654.5896 3.0366-.526.3716-2.6018-2.0272z" fill="#f5841f"/><path d="m6.7594 19.9487 3.3285 1.5771-.0141-.6735.2785-.2444h3.2944l.2885.2436-.0212.673 3.3074-1.5718-1.6094 1.3299-1.9461 1.3366h-3.3402l-1.94488-1.3421z" fill="#c0ac9d"/><path d="m13.2206 18.6271.4707.3325.2757 2.2004-.3991-.337h-3.1346l-.3915.3438.2667-2.2071.4708-.3326z" fill="#161616"/><path d="m21.8668 2.19336 1.1332 3.39947-.7077 3.43719.5039.38876-.6819.52025.5125.39577-.6786.618.4166.3017-1.1056 1.2913-4.535-1.3204-.0393-.021-3.2679-2.75677z" fill="#763e1a"/><path d="m2.13317 2.19336 8.44983 6.25427-3.26793 2.75677-.0393.021-4.53496 1.3204-1.10563-1.2913.41629-.3014-.67829-.6183.51151-.39534-.69208-.52174.52293-.38899-.71554-3.43577z" fill="#763e1a"/><path d="m16.5025 10.9366 4.805 1.399 1.5611 4.8113h-4.1185l-2.8377.0358 2.0637-4.0226z" fill="#f5841f"/><path d="m7.49752 10.9366-1.47394 2.2235 2.064 4.0226-2.83635-.0358h-4.11115l1.55232-4.8113z" fill="#f5841f"/><path d="m15.0408 4.84552-1.344 3.62989-.2852 4.90369-.1091 1.5369-.0087 3.9263h-2.5877l-.0084-3.9189-.1095-1.5457-.2853-4.90229-1.34379-3.62989z" fill="#f5841f"/></svg>