<svg fill="none" height="24" viewBox="0 0 24 24" width="24" xmlns="http://www.w3.org/2000/svg"><path d="m6.09595 8.39489c3.26025-3.19319 8.54785-3.19319 11.80805 0l.3921.38174c.1651.15992.1651.41785 0 .57777l-1.3412 1.3154c-.0826.0774-.2115.0774-.2941 0l-.5416-.5313c-2.275-2.22852-5.9634-2.22852-8.23836 0l-.57777.5675c-.08254.0773-.2115.0773-.29404 0l-1.3464-1.31033c-.16508-.15992-.16508-.41785 0-.57777zm14.58345 2.71861 1.1968 1.171c.1651.1599.1651.4178 0 .5778l-5.3908 5.2772c-.165.16-.4281.16-.5881 0l-3.8225-3.7451c-.0413-.0413-.1083-.0413-.1496 0l-3.82254 3.7451c-.16508.16-.42817.16-.58809 0l-5.39076-5.2772c-.16508-.16-.16508-.4179 0-.5778l1.1968-1.171c.16507-.1599.42816-.1599.58808 0l3.82255 3.7452c.04126.0412.10833.0412.1496 0l3.82256-3.7452c.1651-.1599.4281-.1599.5881 0l3.8225 3.7452c.0413.0412.1083.0412.1496 0l3.8226-3.7452c.165-.1599.4281-.1599.5932 0z" fill="#3b99fc"/></svg>