<svg width="17" height="17" viewBox="0 0 17 17" fill="none" xmlns="http://www.w3.org/2000/svg">
<path fill-rule="evenodd" clip-rule="evenodd" d="M2.09999 8.00002C2.09999 4.74154 4.74151 2.10002 7.99999 2.10002C11.2585 2.10002 13.9 4.74154 13.9 8.00002C13.9 11.2585 11.2585 13.9 7.99999 13.9C4.74151 13.9 2.09999 11.2585 2.09999 8.00002ZM7.99999 0.900024C4.07877 0.900024 0.899994 4.0788 0.899994 8.00002C0.899994 11.9212 4.07877 15.1 7.99999 15.1C9.74462 15.1 11.3423 14.4708 12.5784 13.4269L16.0757 16.9242L16.9243 16.0757L13.4269 12.5783C14.4708 11.3422 15.1 9.7446 15.1 8.00002C15.1 4.0788 11.9212 0.900024 7.99999 0.900024Z" fill="white"/>
</svg>
